<svg width="162" height="66" viewBox="0 0 162 66" fill="none" xmlns="http://www.w3.org/2000/svg">
<g clip-path="url(#clip0_5231_18406)">
<path d="M139.057 20.5278C134.847 27.8196 137.341 37.142 144.625 41.3599L143.036 44.1127C134.231 39.017 131.217 27.7506 136.305 18.9385C141.392 10.1264 152.656 7.10343 161.472 12.1807L159.882 14.9335C152.587 10.734 143.267 13.236 139.057 20.5278Z" fill="white"/>
<path d="M155.751 22.0915C152.409 20.1742 148.143 21.322 146.215 24.661C144.288 27.9999 145.426 32.2679 148.758 34.2036L150.347 31.4508C148.536 30.3929 147.918 28.0689 148.968 26.2503C150.018 24.4316 152.34 23.8047 154.162 24.8443L155.751 22.0915Z" fill="white"/>
<path d="M141.26 21.7998C144.768 15.7243 152.532 13.6389 158.611 17.1361L157.021 19.8888C152.463 17.2694 146.643 18.8338 144.012 23.3891C141.383 27.9443 142.938 33.7674 147.486 36.4053L145.897 39.1581C139.828 35.6424 137.752 27.8753 141.26 21.7998Z" fill="white"/>
<path d="M134.971 19.454C134.971 27.8738 128.151 34.7007 119.734 34.7112V37.8898C129.906 37.8793 138.15 29.6293 138.15 19.454C138.15 9.2786 129.906 1.02863 119.734 1.01807V4.19667C128.151 4.20723 134.971 11.0341 134.971 19.454Z" fill="white"/>
<path d="M119.734 12.4612C123.587 12.4719 126.707 15.5986 126.707 19.4541C126.707 23.3096 123.587 26.4363 119.734 26.447V23.2683C121.832 23.2577 123.529 21.5541 123.529 19.4541C123.529 17.3541 121.832 15.6504 119.734 15.6398V12.4612Z" fill="white"/>
<path d="M132.429 19.4536C132.429 12.4382 126.747 6.74983 119.734 6.7392V9.91777C124.992 9.92845 129.25 14.1937 129.25 19.4536C129.25 24.7135 124.992 28.9787 119.734 28.9893V32.168C126.747 32.1573 132.429 26.4689 132.429 19.4536Z" fill="white"/>
<path d="M54.752 13.7361H58.8097C58.8097 14.2038 58.8097 14.6353 58.8097 15.0645C58.8097 20.3826 58.8097 25.7007 58.8097 31.021C58.8097 31.4322 58.8049 31.8456 58.8253 32.2568C58.9041 33.8156 59.1211 34.01 60.7998 33.8744C60.7998 34.9136 60.8292 35.946 60.7751 36.9717C60.7637 37.1841 60.4746 37.4687 60.2462 37.5659C58.0391 38.5012 56.1302 37.5094 55.5629 35.1689C55.5315 35.0356 55.448 34.9159 55.3146 34.6357C53.5998 37.0282 51.2887 37.9386 48.5233 37.8098C46.2101 37.7014 44.2198 36.8655 42.5932 35.196C39.5275 32.0467 39.4303 26.1729 42.4012 22.8202C44.0277 20.9858 46.0859 20.0279 48.5304 19.8879C50.9678 19.7478 52.9921 20.5972 54.752 22.4565V13.7361ZM49.479 34.2065C52.4409 34.22 54.8446 31.8163 54.8313 28.8522C54.8175 25.9311 52.468 23.5771 49.5378 23.55C46.497 23.5206 44.2627 25.7866 44.2605 28.8997C44.2605 31.9179 46.497 34.1929 49.479 34.2065Z" fill="white"/>
<path d="M109.885 23.0546C110.171 22.0267 110.162 20.8677 110.655 20.5876C111.326 20.2058 112.381 20.4927 113.452 20.4927C113.452 20.9513 113.452 21.3828 113.452 21.8143C113.456 25.2934 113.441 28.7703 113.474 32.2494C113.49 33.8557 113.712 34.0206 115.413 33.8624C115.413 34.8678 115.469 35.8664 115.377 36.8514C115.35 37.136 114.947 37.5246 114.64 37.624C112.22 38.4056 110.709 37.4703 109.998 34.5764C108.29 36.9507 106.015 37.9131 103.281 37.816C100.534 37.7189 98.2567 36.6503 96.578 34.4566C93.9959 31.0791 94.3325 25.5894 97.283 22.535C99.0472 20.7073 101.228 19.8737 103.751 19.8782C106.263 19.8827 108.31 20.8655 109.882 23.0546H109.885ZM98.8824 28.8516C98.8644 31.8812 101.081 34.1765 104.051 34.2058C107.02 34.2352 109.442 31.8563 109.457 28.8991C109.476 25.9463 107.059 23.5403 104.09 23.5494C101.09 23.5607 98.8981 25.7905 98.8824 28.8516Z" fill="white"/>
<path d="M16.8932 30.1603H4.32548C4.38196 32.0264 5.67419 33.6032 7.71199 34.1816C10.2219 34.8932 12.6934 34.5928 15.1107 33.6936C15.4519 33.5671 15.7908 33.4293 16.3081 33.226C16.3081 34.2133 16.3533 35.0604 16.281 35.8963C16.2584 36.1516 15.9557 36.495 15.7004 36.6034C11.966 38.1758 8.17283 38.4966 4.5017 36.5628C0.828288 34.6289 -0.66954 29.9253 0.792145 25.5719C2.09794 21.6839 5.99725 19.3908 10.353 19.9443C15.6597 20.6198 18.7796 25.4386 16.891 30.1603H16.8932ZM4.2803 27.2957H13.7982C13.7937 24.745 12.1693 23.1049 9.63225 22.9626C6.70667 22.7977 4.63499 24.4491 4.2803 27.2957Z" fill="white"/>
<path d="M63.6867 20.5402H67.7624C67.7624 22.3182 67.7624 24.0306 67.7624 25.7454C67.7624 27.1302 67.7486 28.5174 67.769 29.9022C67.8165 33.0538 69.9923 34.712 73.0601 33.9168C74.4563 33.5553 75.3688 32.6494 75.6242 31.2284C75.7823 30.3518 75.796 29.4436 75.8051 28.549C75.8364 25.9667 75.8321 23.3823 75.8478 20.8C75.8478 20.7345 75.9019 20.669 75.9565 20.547H79.9278C79.9278 22.4786 79.9463 24.3424 79.9235 26.204C79.9031 27.9977 79.8784 29.796 79.7768 31.5875C79.7402 32.2088 79.5328 32.8414 79.2978 33.4243C78.0236 36.5758 74.4112 38.2544 70.2159 37.6806C66.4544 37.1655 63.9288 34.8656 63.7322 31.3278C63.5357 27.7854 63.689 24.2226 63.689 20.5425L63.6867 20.5402Z" fill="white"/>
<path d="M20.7964 37.2114H24.8719C24.8719 35.4334 24.8719 33.721 24.8719 32.0063C24.8719 30.6214 24.8584 29.2343 24.8787 27.8494C24.9261 24.6979 27.1017 23.0396 30.1696 23.8349C31.5658 24.1964 32.4785 25.1023 32.7338 26.5233C32.8919 27.3999 32.9055 28.3081 32.9145 29.2027C32.9461 31.7849 32.9416 34.3694 32.9574 36.9516C32.9574 37.0172 33.0117 37.0827 33.0659 37.2046H37.0375C37.0375 35.2731 37.0556 33.4093 37.033 31.5477C37.0126 29.7539 36.9878 27.9556 36.8861 26.1641C36.85 25.5428 36.6422 24.9102 36.4072 24.3274C35.133 21.1758 31.5206 19.4973 27.3253 20.0711C23.5638 20.5862 21.0381 22.886 20.8415 26.4239C20.645 29.9662 20.7986 33.529 20.7986 37.2091L20.7964 37.2114Z" fill="white"/>
<path d="M84.1913 37.2318V20.5049H87.3043C87.4647 21.1759 87.6342 21.883 87.8578 22.8138C89.3894 20.8912 91.1787 19.8227 93.6189 19.965V23.7152C93.542 23.7582 93.4807 23.8192 93.4176 23.8237C89.7601 24.0721 88.2125 25.7236 88.1968 29.4286C88.1854 32.0019 88.1944 34.5728 88.1944 37.2341H84.189L84.1913 37.2318Z" fill="white"/>
</g>
<path d="M1.35831 57V44.6364H3.22372V55.3942H8.82599V57H1.35831ZM15.3156 57.1871C14.402 57.1871 13.6152 56.992 12.9551 56.6016C12.2991 56.2071 11.792 55.6538 11.4338 54.9414C11.0797 54.225 10.9026 53.3859 10.9026 52.424C10.9026 51.4742 11.0797 50.6371 11.4338 49.9126C11.792 49.1882 12.2911 48.6228 12.931 48.2163C13.5749 47.8098 14.3275 47.6065 15.1888 47.6065C15.712 47.6065 16.2191 47.6931 16.7101 47.8661C17.2011 48.0392 17.6418 48.3108 18.0322 48.6811C18.4226 49.0514 18.7305 49.5323 18.9558 50.1239C19.1812 50.7115 19.2939 51.4259 19.2939 52.267V52.907H11.9228V51.5547H17.5251C17.5251 51.0798 17.4285 50.6592 17.2353 50.293C17.0421 49.9227 16.7705 49.6309 16.4203 49.4176C16.0742 49.2043 15.6677 49.0977 15.2009 49.0977C14.6938 49.0977 14.2511 49.2224 13.8727 49.4719C13.4985 49.7174 13.2087 50.0394 13.0034 50.4379C12.8022 50.8323 12.7016 51.2609 12.7016 51.7237V52.7802C12.7016 53.4 12.8102 53.9272 13.0276 54.3619C13.2489 54.7965 13.5568 55.1286 13.9512 55.358C14.3456 55.5833 14.8065 55.696 15.3337 55.696C15.6758 55.696 15.9877 55.6477 16.2694 55.5511C16.5511 55.4505 16.7946 55.3016 16.9999 55.1044C17.2051 54.9072 17.3621 54.6637 17.4708 54.3739L19.1792 54.6818C19.0424 55.1849 18.7969 55.6256 18.4427 56.0039C18.0926 56.3782 17.6519 56.67 17.1206 56.8793C16.5934 57.0845 15.9917 57.1871 15.3156 57.1871ZM24.5052 57.2053C23.9176 57.2053 23.3863 57.0966 22.9114 56.8793C22.4365 56.6579 22.0602 56.3379 21.7825 55.9194C21.5088 55.5008 21.372 54.9877 21.372 54.38C21.372 53.8568 21.4726 53.4261 21.6739 53.0881C21.8751 52.75 22.1467 52.4824 22.4888 52.2852C22.8309 52.0879 23.2133 51.939 23.6359 51.8384C24.0584 51.7378 24.4891 51.6613 24.9278 51.609C25.4832 51.5446 25.9339 51.4923 26.28 51.4521C26.6262 51.4078 26.8777 51.3374 27.0346 51.2408C27.1916 51.1442 27.2701 50.9872 27.2701 50.7699V50.7276C27.2701 50.2004 27.1212 49.7919 26.8234 49.5021C26.5296 49.2124 26.0909 49.0675 25.5073 49.0675C24.8996 49.0675 24.4207 49.2023 24.0705 49.4719C23.7244 49.7376 23.4849 50.0334 23.3521 50.3594L21.6557 49.973C21.857 49.4096 22.1508 48.9548 22.5371 48.6087C22.9275 48.2585 23.3763 48.005 23.8834 47.848C24.3905 47.687 24.9237 47.6065 25.4832 47.6065C25.8534 47.6065 26.2458 47.6508 26.6604 47.7393C27.0789 47.8239 27.4693 47.9808 27.8315 48.2102C28.1978 48.4396 28.4976 48.7676 28.731 49.1942C28.9645 49.6168 29.0812 50.1662 29.0812 50.8423V57H27.3184V55.7322H27.2459C27.1292 55.9657 26.9542 56.1951 26.7207 56.4205C26.4873 56.6458 26.1875 56.833 25.8212 56.9819C25.455 57.1308 25.0163 57.2053 24.5052 57.2053ZM24.8976 55.7564C25.3966 55.7564 25.8232 55.6578 26.1774 55.4606C26.5356 55.2634 26.8073 55.0058 26.9924 54.6879C27.1815 54.3659 27.2761 54.0218 27.2761 53.6555V52.4602C27.2117 52.5246 27.087 52.585 26.9018 52.6413C26.7207 52.6937 26.5135 52.7399 26.28 52.7802C26.0466 52.8164 25.8192 52.8506 25.5979 52.8828C25.3765 52.911 25.1914 52.9351 25.0425 52.9553C24.6923 52.9995 24.3724 53.074 24.0826 53.1786C23.7968 53.2833 23.5674 53.4342 23.3944 53.6314C23.2253 53.8246 23.1408 54.0821 23.1408 54.4041C23.1408 54.8509 23.3058 55.1889 23.6359 55.4183C23.9659 55.6437 24.3864 55.7564 24.8976 55.7564ZM31.9954 57V47.7273H33.7401V49.2003H33.8366C34.0057 48.7012 34.3035 48.3088 34.7301 48.0231C35.1607 47.7333 35.6477 47.5884 36.191 47.5884C36.3037 47.5884 36.4365 47.5924 36.5895 47.6005C36.7464 47.6085 36.8692 47.6186 36.9577 47.6307V49.3572C36.8853 49.3371 36.7565 49.315 36.5714 49.2908C36.3862 49.2627 36.2011 49.2486 36.016 49.2486C35.5894 49.2486 35.209 49.3391 34.875 49.5202C34.545 49.6973 34.2834 49.9448 34.0902 50.2628C33.897 50.5767 33.8004 50.9349 33.8004 51.3374V57H31.9954ZM40.8348 51.4943V57H39.0298V47.7273H40.7624V49.2365H40.8771C41.0904 48.7455 41.4244 48.3511 41.8792 48.0533C42.338 47.7554 42.9156 47.6065 43.6118 47.6065C44.2437 47.6065 44.7971 47.7393 45.272 48.005C45.7469 48.2666 46.1151 48.657 46.3767 49.1761C46.6383 49.6953 46.7691 50.3372 46.7691 51.1019V57H44.9641V51.3192C44.9641 50.6471 44.789 50.1219 44.4389 49.7436C44.0887 49.3613 43.6078 49.1701 42.9961 49.1701C42.5775 49.1701 42.2052 49.2607 41.8792 49.4418C41.5573 49.6229 41.3017 49.8885 41.1125 50.2386C40.9274 50.5848 40.8348 51.0033 40.8348 51.4943ZM49.6999 57V47.7273H51.505V57H49.6999ZM50.6115 46.2965C50.2976 46.2965 50.028 46.1919 49.8026 45.9826C49.5812 45.7693 49.4705 45.5157 49.4705 45.2219C49.4705 44.9241 49.5812 44.6706 49.8026 44.4613C50.028 44.248 50.2976 44.1413 50.6115 44.1413C50.9254 44.1413 51.1931 44.248 51.4144 44.4613C51.6398 44.6706 51.7525 44.9241 51.7525 45.2219C51.7525 45.5157 51.6398 45.7693 51.4144 45.9826C51.1931 46.1919 50.9254 46.2965 50.6115 46.2965ZM56.2484 51.4943V57H54.4433V47.7273H56.1759V49.2365H56.2906C56.504 48.7455 56.838 48.3511 57.2928 48.0533C57.7516 47.7554 58.3291 47.6065 59.0254 47.6065C59.6572 47.6065 60.2106 47.7393 60.6855 48.005C61.1604 48.2666 61.5287 48.657 61.7903 49.1761C62.0519 49.6953 62.1827 50.3372 62.1827 51.1019V57H60.3777V51.3192C60.3777 50.6471 60.2026 50.1219 59.8524 49.7436C59.5023 49.3613 59.0214 49.1701 58.4096 49.1701C57.9911 49.1701 57.6188 49.2607 57.2928 49.4418C56.9708 49.6229 56.7152 49.8885 56.5261 50.2386C56.341 50.5848 56.2484 51.0033 56.2484 51.4943ZM69.0013 60.6705C68.2648 60.6705 67.6309 60.5739 67.0997 60.3807C66.5724 60.1875 66.1418 59.9319 65.8077 59.614C65.4737 59.296 65.2242 58.9479 65.0592 58.5696L66.6107 57.9297C66.7193 58.1068 66.8642 58.2939 67.0453 58.4911C67.2305 58.6924 67.48 58.8634 67.7939 59.0043C68.1118 59.1451 68.5203 59.2156 69.0194 59.2156C69.7036 59.2156 70.269 59.0485 70.7158 58.7145C71.1625 58.3845 71.3859 57.8572 71.3859 57.1328V55.3097H71.2712C71.1625 55.5069 71.0055 55.7262 70.8003 55.9677C70.5991 56.2092 70.3214 56.4184 69.9672 56.5955C69.613 56.7726 69.1522 56.8612 68.5847 56.8612C67.8523 56.8612 67.1922 56.6901 66.6046 56.348C66.0211 56.0019 65.5582 55.4928 65.2161 54.8207C64.8781 54.1445 64.709 53.3134 64.709 52.3274C64.709 51.3414 64.876 50.4962 65.2101 49.7919C65.5482 49.0876 66.011 48.5483 66.5986 48.174C67.1862 47.7957 67.8523 47.6065 68.5968 47.6065C69.1723 47.6065 69.6372 47.7031 69.9913 47.8963C70.3455 48.0855 70.6212 48.3068 70.8184 48.5604C71.0196 48.8139 71.1746 49.0373 71.2832 49.2305H71.4161V47.7273H73.1849V57.2053C73.1849 58.0021 72.9997 58.6561 72.6295 59.1673C72.2592 59.6784 71.7582 60.0567 71.1263 60.3022C70.4984 60.5477 69.7901 60.6705 69.0013 60.6705ZM68.9832 55.364C69.5024 55.364 69.941 55.2433 70.2992 55.0018C70.6614 54.7563 70.9351 54.4061 71.1202 53.9513C71.3094 53.4925 71.404 52.9432 71.404 52.3033C71.404 51.6795 71.3114 51.1301 71.1263 50.6552C70.9412 50.1803 70.6695 49.81 70.3113 49.5444C69.9531 49.2747 69.5104 49.1399 68.9832 49.1399C68.4399 49.1399 67.9871 49.2808 67.6249 49.5625C67.2626 49.8402 66.989 50.2185 66.8038 50.6974C66.6227 51.1764 66.5322 51.7116 66.5322 52.3033C66.5322 52.911 66.6247 53.4442 66.8099 53.9031C66.995 54.3619 67.2687 54.7201 67.6309 54.9776C67.9971 55.2352 68.4479 55.364 68.9832 55.364ZM81.2696 57V44.6364H83.135V50.0092H89.2987V44.6364H91.1702V57H89.2987V51.609H83.135V57H81.2696ZM100.126 53.1545V47.7273H101.937V57H100.162V55.3942H100.065C99.8522 55.8892 99.5101 56.3017 99.0392 56.6317C98.5723 56.9577 97.9908 57.1207 97.2945 57.1207C96.6989 57.1207 96.1716 56.9899 95.7128 56.7283C95.2581 56.4627 94.8999 56.0703 94.6383 55.5511C94.3807 55.032 94.2519 54.39 94.2519 53.6254V47.7273H96.0569V53.408C96.0569 54.0399 96.232 54.543 96.5822 54.9173C96.9323 55.2915 97.3871 55.4787 97.9465 55.4787C98.2846 55.4787 98.6206 55.3942 98.9547 55.2251C99.2927 55.0561 99.5724 54.8005 99.7938 54.4585C100.019 54.1164 100.13 53.6817 100.126 53.1545ZM105.017 57V44.6364H106.822V49.2305H106.931C107.035 49.0373 107.186 48.8139 107.384 48.5604C107.581 48.3068 107.854 48.0855 108.205 47.8963C108.555 47.7031 109.018 47.6065 109.593 47.6065C110.342 47.6065 111.01 47.7957 111.597 48.174C112.185 48.5523 112.646 49.0977 112.98 49.81C113.318 50.5224 113.487 51.3796 113.487 52.3817C113.487 53.3839 113.32 54.2431 112.986 54.9595C112.652 55.6719 112.193 56.2212 111.609 56.6076C111.026 56.9899 110.36 57.1811 109.611 57.1811C109.048 57.1811 108.587 57.0865 108.229 56.8974C107.875 56.7082 107.597 56.4869 107.396 56.2333C107.194 55.9798 107.04 55.7544 106.931 55.5572H106.78V57H105.017ZM106.786 52.3636C106.786 53.0156 106.881 53.5871 107.07 54.0781C107.259 54.5691 107.533 54.9535 107.891 55.2312C108.249 55.5049 108.688 55.6417 109.207 55.6417C109.746 55.6417 110.197 55.4988 110.559 55.2131C110.921 54.9233 111.195 54.5309 111.38 54.0359C111.569 53.5408 111.664 52.9834 111.664 52.3636C111.664 51.7519 111.571 51.2025 111.386 50.7156C111.205 50.2286 110.931 49.8442 110.565 49.5625C110.203 49.2808 109.75 49.1399 109.207 49.1399C108.684 49.1399 108.241 49.2747 107.879 49.5444C107.52 49.814 107.249 50.1903 107.064 50.6733C106.879 51.1562 106.786 51.7197 106.786 52.3636Z" fill="white"/>
<defs>
<clipPath id="clip0_5231_18406">
<rect width="161.889" height="47" fill="white"/>
</clipPath>
</defs>
</svg>
