<svg width="108" height="99" viewBox="0 0 108 99" fill="none" xmlns="http://www.w3.org/2000/svg">
<path d="M60.2404 43.2406C51.3727 58.5999 56.6243 78.2365 71.968 87.1209L68.6203 92.9193C50.0742 82.186 43.7255 58.4546 54.4421 39.8929C65.1587 21.3312 88.885 14.9637 107.453 25.6584L104.106 31.4568C88.7397 22.611 69.1081 27.8813 60.2404 43.2406Z" fill="#F25D3C"/>
<path d="M95.4017 46.5325C88.3619 42.494 79.3771 44.9116 75.3165 51.9448C71.256 58.9779 73.6546 67.9678 80.672 72.0451L84.0197 66.2468C80.2047 64.0183 78.9032 59.1232 81.1149 55.2924C83.3266 51.4617 88.2166 50.1412 92.054 52.3309L95.4017 46.5325Z" fill="#F25D3C"/>
<path d="M64.8796 45.9188C72.2681 33.1214 88.6236 28.7288 101.428 36.0953L98.0799 41.8936C88.4783 36.3761 76.2176 39.6714 70.678 49.2664C65.1383 58.8614 68.4147 71.1271 77.9939 76.6837L74.6462 82.482C61.8647 75.0766 57.4911 58.7161 64.8796 45.9188Z" fill="#F25D3C"/>
<path d="M51.6325 40.9782C51.6325 58.7136 37.2662 73.0936 19.536 73.1158L19.536 79.8112C40.964 79.789 58.3278 62.4113 58.3278 40.9782C58.3278 19.545 40.9639 2.1674 19.536 2.14515L19.536 8.84051C37.2662 8.86276 51.6325 23.2428 51.6325 40.9782Z" fill="#F25D3C"/>
<path d="M19.536 26.2484C27.6519 26.2709 34.2241 32.857 34.2241 40.9781C34.2241 49.0993 27.6519 55.6854 19.536 55.7079L19.536 49.0124C23.9541 48.99 27.5288 45.4015 27.5288 40.9781C27.5288 36.5547 23.9541 32.9662 19.536 32.9438L19.536 26.2484Z" fill="#F25D3C"/>
<path d="M46.2758 40.9779C46.2758 26.2009 34.3078 14.219 19.536 14.1966L19.536 20.8919C30.6101 20.9144 39.5804 29.8986 39.5804 40.9779C39.5804 52.0573 30.6101 61.0415 19.536 61.0639L19.536 67.7593C34.3078 67.7368 46.2758 55.755 46.2758 40.9779Z" fill="#F25D3C"/>
</svg>
