<svg width="340" height="99" viewBox="0 0 340 99" fill="none" xmlns="http://www.w3.org/2000/svg">
<path d="M292.407 43.2406C283.539 58.5999 288.791 78.2365 304.134 87.1209L300.787 92.9193C282.241 82.186 275.892 58.4546 286.609 39.8929C297.325 21.3312 321.052 14.9637 339.62 25.6584L336.272 31.4568C320.906 22.611 301.275 27.8813 292.407 43.2406Z" fill="#F25D3C"/>
<path d="M327.568 46.5325C320.528 42.494 311.544 44.9116 307.483 51.9448C303.422 58.9779 305.821 67.9678 312.838 72.0451L316.186 66.2468C312.371 64.0183 311.07 59.1232 313.281 55.2924C315.493 51.4617 320.383 50.1412 324.221 52.3309L327.568 46.5325Z" fill="#F25D3C"/>
<path d="M297.046 45.9188C304.435 33.1214 320.79 28.7288 333.594 36.0953L330.246 41.8936C320.645 36.3761 308.384 39.6714 302.844 49.2664C297.305 58.8614 300.581 71.1271 310.16 76.6837L306.813 82.482C294.031 75.0766 289.658 58.7161 297.046 45.9188Z" fill="#F25D3C"/>
<path d="M283.799 40.9782C283.799 58.7136 269.433 73.0936 251.703 73.1158L251.703 79.8112C273.13 79.789 290.494 62.4113 290.494 40.9782C290.494 19.545 273.13 2.1674 251.703 2.14515L251.703 8.84051C269.433 8.86276 283.799 23.2428 283.799 40.9782Z" fill="#F25D3C"/>
<path d="M251.702 26.2484C259.818 26.2709 266.391 32.857 266.391 40.9781C266.391 49.0993 259.818 55.6854 251.702 55.7079L251.702 49.0124C256.121 48.99 259.695 45.4015 259.695 40.9781C259.695 36.5547 256.121 32.9662 251.702 32.9438L251.702 26.2484Z" fill="#F25D3C"/>
<path d="M278.442 40.9779C278.442 26.2009 266.474 14.219 251.702 14.1966L251.702 20.8919C262.777 20.9144 271.747 29.8986 271.747 40.9779C271.747 52.0573 262.777 61.0415 251.703 61.0639L251.703 67.7593C266.474 67.7368 278.442 55.755 278.442 40.9779Z" fill="#F25D3C"/>
<path d="M114.826 28.9331H123.373C123.373 29.9182 123.373 30.8271 123.373 31.7312C123.373 42.9331 123.373 54.135 123.373 65.3417C123.373 66.2078 123.363 67.0786 123.406 67.9447C123.572 71.2282 124.029 71.6375 127.565 71.3519C127.565 73.5409 127.627 75.7156 127.513 77.8761C127.489 78.3234 126.88 78.923 126.399 79.1276C121.75 81.0977 117.729 79.0086 116.534 74.0787C116.468 73.7979 116.292 73.5457 116.011 72.9556C112.399 77.995 107.531 79.9128 101.706 79.6415C96.8335 79.4131 92.6411 77.6524 89.2149 74.1358C82.7574 67.5022 82.5527 55.1296 88.8104 48.0677C92.2366 44.2037 96.5718 42.186 101.721 41.891C106.855 41.5959 111.119 43.3852 114.826 47.3016V28.9331ZM103.719 72.0515C109.958 72.08 115.021 67.0168 114.993 60.7734C114.964 54.6204 110.015 49.6619 103.843 49.6048C97.4379 49.5429 92.7315 54.3159 92.7268 60.8733C92.7268 67.2309 97.4379 72.0229 103.719 72.0515Z" fill="#ffffff"/>
<path d="M230.957 48.5612C231.561 46.396 231.542 43.9548 232.58 43.3647C233.993 42.5605 236.215 43.1649 238.471 43.1649C238.471 44.1309 238.471 45.0398 238.471 45.9487C238.48 53.2771 238.447 60.6007 238.518 67.929C238.552 71.3124 239.018 71.6598 242.601 71.3267C242.601 73.4443 242.72 75.5477 242.525 77.6225C242.468 78.222 241.621 79.0405 240.974 79.2499C235.877 80.8964 232.694 78.9263 231.195 72.8305C227.597 77.8318 222.805 79.859 217.047 79.6544C211.261 79.4498 206.464 77.1989 202.928 72.5783C197.489 65.464 198.198 53.9005 204.413 47.4667C208.129 43.617 212.722 41.861 218.037 41.8705C223.329 41.88 227.64 43.9501 230.952 48.5612H230.957ZM207.782 60.772C207.744 67.1534 212.412 71.9882 218.67 72.05C224.923 72.1119 230.024 67.101 230.057 60.8719C230.096 54.6523 225.004 49.5843 218.751 49.6034C212.431 49.6272 207.815 54.324 207.782 60.772Z" fill="#ffffff"/>
<path d="M35.0817 63.5283H8.60921C8.72818 67.459 11.4501 70.7805 15.7425 71.9987C21.0294 73.4977 26.2353 72.8648 31.3271 70.9709C32.0457 70.7044 32.7595 70.4141 33.8492 69.9858C33.8492 72.0654 33.9444 73.8499 33.7921 75.6106C33.7445 76.1483 33.1069 76.8716 32.5691 77.1C24.703 80.4121 16.7132 81.0878 8.98039 77.0144C1.24278 72.941 -1.91222 63.0334 1.16665 53.8634C3.91716 45.6737 12.1306 40.8437 21.3054 42.0096C32.4835 43.4324 39.0552 53.5827 35.077 63.5283H35.0817ZM8.51404 57.4943H28.5623C28.5528 52.1217 25.1313 48.667 19.7873 48.3672C13.6249 48.0198 9.26115 51.4984 8.51404 57.4943Z" fill="#ffffff"/>
<path d="M133.647 43.2649H142.232C142.232 47.01 142.232 50.617 142.232 54.2289C142.232 57.1459 142.203 60.0678 142.246 62.9848C142.346 69.6232 146.929 73.1161 153.391 71.441C156.332 70.6796 158.254 68.7714 158.792 65.7782C159.125 63.9318 159.154 62.0188 159.173 60.1344C159.239 54.6952 159.23 49.2513 159.263 43.8121C159.263 43.6741 159.377 43.5361 159.492 43.2792H167.857C167.857 47.3478 167.896 51.2737 167.848 55.1949C167.805 58.9733 167.753 62.7612 167.539 66.5348C167.462 67.8434 167.025 69.1759 166.53 70.4036C163.846 77.042 156.237 80.5777 147.4 79.369C139.477 78.284 134.157 73.4397 133.743 65.9876C133.329 58.526 133.652 51.0215 133.652 43.2697L133.647 43.2649Z" fill="#ffffff"/>
<path d="M43.3041 78.3811H51.8887C51.8887 74.636 51.8887 71.029 51.8887 67.4171C51.8887 64.5 51.8602 61.5782 51.903 58.6612C52.0029 52.0228 56.5855 48.5299 63.0478 50.205C65.9887 50.9664 67.9112 52.8746 68.4489 55.8678C68.782 57.7142 68.8106 59.6272 68.8296 61.5116C68.8962 66.9508 68.8867 72.3947 68.92 77.8339C68.92 77.9719 69.0342 78.1099 69.1484 78.3668H77.5142C77.5142 74.2982 77.5522 70.3723 77.5047 66.4511C77.4618 62.6727 77.4095 58.8848 77.1953 55.1112C77.1192 53.8025 76.6814 52.4701 76.1865 51.2424C73.5026 44.604 65.8935 41.0683 57.0566 42.277C49.1334 43.362 43.8133 48.2063 43.3992 55.6584C42.9852 63.12 43.3088 70.6245 43.3088 78.3763L43.3041 78.3811Z" fill="#ffffff"/>
<path d="M176.838 78.4252V43.192H183.395C183.733 44.6053 184.09 46.0948 184.561 48.0553C187.787 44.0057 191.556 41.7549 196.696 42.0547V49.9541C196.534 50.0445 196.405 50.173 196.272 50.1825C188.568 50.7059 185.308 54.1845 185.275 61.9887C185.251 67.4089 185.27 72.8243 185.27 78.43H176.833L176.838 78.4252Z" fill="#ffffff"/>
</svg>
